<?xml version="1.0" encoding="us-ascii" standalone="no"?><svg xmlns="http://www.w3.org/2000/svg" xmlns:xlink="http://www.w3.org/1999/xlink" contentStyleType="text/css" height="354px" preserveAspectRatio="none" style="width:306px;height:354px;background:#FFFFFF;" version="1.1" viewBox="0 0 306 354" width="306px" zoomAndPan="magnify"><defs/><g><!--class ItemType--><g id="elem_ItemType"><rect codeLine="2" fill="#F1F1F1" height="67.0679" id="ItemType" rx="2.5" ry="2.5" style="stroke:#181818;stroke-width:0.5;" width="95" x="7" y="153"/><ellipse cx="22" cy="169" fill="#ADD1B2" rx="11" ry="11" style="stroke:#181818;stroke-width:1.0;"/><path d="M21.4688,175.9219 Q19.7188,175.9219 18.5781,175.1875 Q17.4531,174.4375 16.8906,173.0938 Q16.3438,171.7344 16.3438,169.9375 Q16.3438,167.9063 17,166.4531 Q17.6563,165 18.9375,164.2188 Q20.2188,163.4375 22.0938,163.4375 Q22.9844,163.4375 23.6563,163.625 Q24.3281,163.7969 25.0156,164.1406 L24.2031,166.1563 Q23.5781,165.8438 23.0313,165.7188 Q22.5,165.5938 22.0156,165.5938 Q20.8438,165.5938 20.1406,166.125 Q19.4375,166.6563 19.1406,167.6094 Q18.8438,168.5625 18.8438,169.8281 Q18.8438,171.8438 19.5625,172.8125 Q20.2813,173.7656 21.875,173.7656 Q22.4688,173.7656 23.0938,173.6094 Q23.7188,173.4531 24.5469,173.0781 L24.5469,175.2969 Q23.8125,175.6094 23.0156,175.7656 Q22.2344,175.9219 21.4688,175.9219 Z " fill="#000000"/><text fill="#000000" font-family="sans-serif" font-size="14" lengthAdjust="spacing" textLength="63" x="36" y="174.432">ItemType</text><line style="stroke:#181818;stroke-width:0.5;" x1="8" x2="101" y1="185" y2="185"/><text fill="#000000" font-family="sans-serif" font-size="14" lengthAdjust="spacing" textLength="38" x="13" y="203.9659">name</text><line style="stroke:#181818;stroke-width:0.5;" x1="8" x2="101" y1="212.0679" y2="212.0679"/></g><!--class Category--><g id="elem_Category"><rect codeLine="23" fill="#F1F1F1" height="67.0679" id="Category" rx="2.5" ry="2.5" style="stroke:#181818;stroke-width:0.5;" width="92" x="8.5" y="280"/><ellipse cx="23.5" cy="296" fill="#ADD1B2" rx="11" ry="11" style="stroke:#181818;stroke-width:1.0;"/><path d="M22.9688,302.9219 Q21.2188,302.9219 20.0781,302.1875 Q18.9531,301.4375 18.3906,300.0938 Q17.8438,298.7344 17.8438,296.9375 Q17.8438,294.9063 18.5,293.4531 Q19.1563,292 20.4375,291.2188 Q21.7188,290.4375 23.5938,290.4375 Q24.4844,290.4375 25.1563,290.625 Q25.8281,290.7969 26.5156,291.1406 L25.7031,293.1563 Q25.0781,292.8438 24.5313,292.7188 Q24,292.5938 23.5156,292.5938 Q22.3438,292.5938 21.6406,293.125 Q20.9375,293.6563 20.6406,294.6094 Q20.3438,295.5625 20.3438,296.8281 Q20.3438,298.8438 21.0625,299.8125 Q21.7813,300.7656 23.375,300.7656 Q23.9688,300.7656 24.5938,300.6094 Q25.2188,300.4531 26.0469,300.0781 L26.0469,302.2969 Q25.3125,302.6094 24.5156,302.7656 Q23.7344,302.9219 22.9688,302.9219 Z " fill="#000000"/><text fill="#000000" font-family="sans-serif" font-size="14" lengthAdjust="spacing" textLength="60" x="37.5" y="301.432">Category</text><line style="stroke:#181818;stroke-width:0.5;" x1="9.5" x2="99.5" y1="312" y2="312"/><text fill="#000000" font-family="sans-serif" font-size="14" lengthAdjust="spacing" textLength="38" x="14.5" y="330.9659">name</text><line style="stroke:#181818;stroke-width:0.5;" x1="9.5" x2="99.5" y1="339.0679" y2="339.0679"/></g><!--class Attribute--><g id="elem_Attribute"><rect codeLine="20" fill="#F1F1F1" height="67.0679" id="Attribute" rx="2.5" ry="2.5" style="stroke:#181818;stroke-width:0.5;" width="92" x="153.5" y="280"/><ellipse cx="168.5" cy="296" fill="#ADD1B2" rx="11" ry="11" style="stroke:#181818;stroke-width:1.0;"/><path d="M167.9688,302.9219 Q166.2188,302.9219 165.0781,302.1875 Q163.9531,301.4375 163.3906,300.0938 Q162.8438,298.7344 162.8438,296.9375 Q162.8438,294.9063 163.5,293.4531 Q164.1563,292 165.4375,291.2188 Q166.7188,290.4375 168.5938,290.4375 Q169.4844,290.4375 170.1563,290.625 Q170.8281,290.7969 171.5156,291.1406 L170.7031,293.1563 Q170.0781,292.8438 169.5313,292.7188 Q169,292.5938 168.5156,292.5938 Q167.3438,292.5938 166.6406,293.125 Q165.9375,293.6563 165.6406,294.6094 Q165.3438,295.5625 165.3438,296.8281 Q165.3438,298.8438 166.0625,299.8125 Q166.7813,300.7656 168.375,300.7656 Q168.9688,300.7656 169.5938,300.6094 Q170.2188,300.4531 171.0469,300.0781 L171.0469,302.2969 Q170.3125,302.6094 169.5156,302.7656 Q168.7344,302.9219 167.9688,302.9219 Z " fill="#000000"/><text fill="#000000" font-family="sans-serif" font-size="14" lengthAdjust="spacing" textLength="60" x="182.5" y="301.432">Attribute</text><line style="stroke:#181818;stroke-width:0.5;" x1="154.5" x2="244.5" y1="312" y2="312"/><text fill="#000000" font-family="sans-serif" font-size="14" lengthAdjust="spacing" textLength="38" x="159.5" y="330.9659">name</text><line style="stroke:#181818;stroke-width:0.5;" x1="154.5" x2="244.5" y1="339.0679" y2="339.0679"/></g><!--class Item--><g id="elem_Item"><rect codeLine="8" fill="#F1F1F1" height="86.1358" id="Item" rx="2.5" ry="2.5" style="stroke:#181818;stroke-width:0.5;" width="63" x="53" y="7"/><ellipse cx="68" cy="23" fill="#ADD1B2" rx="11" ry="11" style="stroke:#181818;stroke-width:1.0;"/><path d="M67.4688,29.9219 Q65.7188,29.9219 64.5781,29.1875 Q63.4531,28.4375 62.8906,27.0938 Q62.3438,25.7344 62.3438,23.9375 Q62.3438,21.9063 63,20.4531 Q63.6563,19 64.9375,18.2188 Q66.2188,17.4375 68.0938,17.4375 Q68.9844,17.4375 69.6563,17.625 Q70.3281,17.7969 71.0156,18.1406 L70.2031,20.1563 Q69.5781,19.8438 69.0313,19.7188 Q68.5,19.5938 68.0156,19.5938 Q66.8438,19.5938 66.1406,20.125 Q65.4375,20.6563 65.1406,21.6094 Q64.8438,22.5625 64.8438,23.8281 Q64.8438,25.8438 65.5625,26.8125 Q66.2813,27.7656 67.875,27.7656 Q68.4688,27.7656 69.0938,27.6094 Q69.7188,27.4531 70.5469,27.0781 L70.5469,29.2969 Q69.8125,29.6094 69.0156,29.7656 Q68.2344,29.9219 67.4688,29.9219 Z " fill="#000000"/><text fill="#000000" font-family="sans-serif" font-size="14" lengthAdjust="spacing" textLength="31" x="82" y="28.432">Item</text><line style="stroke:#181818;stroke-width:0.5;" x1="54" x2="115" y1="39" y2="39"/><text fill="#000000" font-family="sans-serif" font-size="14" lengthAdjust="spacing" textLength="13" x="59" y="57.9659">id</text><text fill="#000000" font-family="sans-serif" font-size="14" lengthAdjust="spacing" textLength="34" x="59" y="77.0339">stock</text><line style="stroke:#181818;stroke-width:0.5;" x1="54" x2="115" y1="85.1358" y2="85.1358"/></g><!--class ConfigurationValue--><g id="elem_ConfigurationValue"><rect codeLine="17" fill="#F1F1F1" height="67.0679" id="ConfigurationValue" rx="2.5" ry="2.5" style="stroke:#181818;stroke-width:0.5;" width="162" x="137.5" y="153"/><ellipse cx="152.5" cy="169" fill="#ADD1B2" rx="11" ry="11" style="stroke:#181818;stroke-width:1.0;"/><path d="M151.9688,175.9219 Q150.2188,175.9219 149.0781,175.1875 Q147.9531,174.4375 147.3906,173.0938 Q146.8438,171.7344 146.8438,169.9375 Q146.8438,167.9063 147.5,166.4531 Q148.1563,165 149.4375,164.2188 Q150.7188,163.4375 152.5938,163.4375 Q153.4844,163.4375 154.1563,163.625 Q154.8281,163.7969 155.5156,164.1406 L154.7031,166.1563 Q154.0781,165.8438 153.5313,165.7188 Q153,165.5938 152.5156,165.5938 Q151.3438,165.5938 150.6406,166.125 Q149.9375,166.6563 149.6406,167.6094 Q149.3438,168.5625 149.3438,169.8281 Q149.3438,171.8438 150.0625,172.8125 Q150.7813,173.7656 152.375,173.7656 Q152.9688,173.7656 153.5938,173.6094 Q154.2188,173.4531 155.0469,173.0781 L155.0469,175.2969 Q154.3125,175.6094 153.5156,175.7656 Q152.7344,175.9219 151.9688,175.9219 Z " fill="#000000"/><text fill="#000000" font-family="sans-serif" font-size="14" lengthAdjust="spacing" textLength="130" x="166.5" y="174.432">ConfigurationValue</text><line style="stroke:#181818;stroke-width:0.5;" x1="138.5" x2="298.5" y1="185" y2="185"/><text fill="#000000" font-family="sans-serif" font-size="14" lengthAdjust="spacing" textLength="36" x="143.5" y="203.9659">value</text><line style="stroke:#181818;stroke-width:0.5;" x1="138.5" x2="298.5" y1="212.0679" y2="212.0679"/></g><!--class Order--><g id="elem_Order"><rect fill="#F1F1F1" height="48" id="Order" rx="2.5" ry="2.5" style="stroke:#181818;stroke-width:0.5;" width="72" x="166.5" y="26"/><ellipse cx="181.5" cy="42" fill="#ADD1B2" rx="11" ry="11" style="stroke:#181818;stroke-width:1.0;"/><path d="M180.9688,48.9219 Q179.2188,48.9219 178.0781,48.1875 Q176.9531,47.4375 176.3906,46.0938 Q175.8438,44.7344 175.8438,42.9375 Q175.8438,40.9063 176.5,39.4531 Q177.1563,38 178.4375,37.2188 Q179.7188,36.4375 181.5938,36.4375 Q182.4844,36.4375 183.1563,36.625 Q183.8281,36.7969 184.5156,37.1406 L183.7031,39.1563 Q183.0781,38.8438 182.5313,38.7188 Q182,38.5938 181.5156,38.5938 Q180.3438,38.5938 179.6406,39.125 Q178.9375,39.6563 178.6406,40.6094 Q178.3438,41.5625 178.3438,42.8281 Q178.3438,44.8438 179.0625,45.8125 Q179.7813,46.7656 181.375,46.7656 Q181.9688,46.7656 182.5938,46.6094 Q183.2188,46.4531 184.0469,46.0781 L184.0469,48.2969 Q183.3125,48.6094 182.5156,48.7656 Q181.7344,48.9219 180.9688,48.9219 Z " fill="#000000"/><text fill="#000000" font-family="sans-serif" font-size="14" lengthAdjust="spacing" textLength="40" x="195.5" y="47.432">Order</text><line style="stroke:#181818;stroke-width:0.5;" x1="167.5" x2="237.5" y1="58" y2="58"/><line style="stroke:#181818;stroke-width:0.5;" x1="167.5" x2="237.5" y1="66" y2="66"/></g><!--link ItemType to Category--><g id="link_ItemType_Category"><path codeLine="5" d="M54.5,220.02 C54.5,238.39 54.5,255.29 54.5,273.71 " fill="none" id="ItemType-to-Category" style="stroke:#181818;stroke-width:1.0;"/><polygon fill="#181818" points="54.5,279.71,58.5,270.71,54.5,274.71,50.5,270.71,54.5,279.71" style="stroke:#181818;stroke-width:1.0;"/><text fill="#000000" font-family="sans-serif" font-size="13" lengthAdjust="spacing" textLength="7" x="46.7781" y="267.9505">1</text></g><!--link ItemType to Attribute--><g id="link_ItemType_Attribute"><path codeLine="6" d="M92.22,220.02 C113.62,238.46 135.7659,257.552 157.1759,276.012 " fill="none" id="ItemType-to-Attribute" style="stroke:#181818;stroke-width:1.0;"/><polygon fill="#181818" points="161.72,279.93,157.5158,271.0236,157.9332,276.665,152.2918,277.0824,161.72,279.93" style="stroke:#181818;stroke-width:1.0;"/><text fill="#000000" font-family="sans-serif" font-size="13" lengthAdjust="spacing" textLength="23" x="128.556" y="268.2159">0..N</text></g><!--link Item to ItemType--><g id="link_Item_ItemType"><path codeLine="12" d="M75.09,93.19 C70.79,112.45 67.0857,129.0538 63.0857,146.9938 " fill="none" id="Item-to-ItemType" style="stroke:#181818;stroke-width:1.0;"/><polygon fill="#181818" points="61.78,152.85,67.6427,144.9362,62.8681,147.9698,59.8345,143.1952,61.78,152.85" style="stroke:#181818;stroke-width:1.0;"/><text fill="#000000" font-family="sans-serif" font-size="13" lengthAdjust="spacing" textLength="7" x="55.5596" y="141.1194">1</text></g><!--link Item to ConfigurationValue--><g id="link_Item_ConfigurationValue"><path codeLine="13" d="M116.26,82.87 C137.31,104 160.6154,127.3994 181.8054,148.6694 " fill="none" id="Item-to-ConfigurationValue" style="stroke:#181818;stroke-width:1.0;"/><polygon fill="#181818" points="186.04,152.92,182.5218,143.721,182.5111,149.3778,176.8543,149.3672,186.04,152.92" style="stroke:#181818;stroke-width:1.0;"/><text fill="#000000" font-family="sans-serif" font-size="13" lengthAdjust="spacing" textLength="23" x="153.9732" y="141.2038">0..N</text></g><!--link ConfigurationValue to Attribute--><g id="link_ConfigurationValue_Attribute"><path codeLine="15" d="M213.56,220.02 C210.76,238.39 208.1817,255.3581 205.3817,273.7781 " fill="none" id="ConfigurationValue-to-Attribute" style="stroke:#181818;stroke-width:1.0;"/><polygon fill="#181818" points="204.48,279.71,209.7871,271.4133,205.2314,274.7668,201.878,270.2111,204.48,279.71" style="stroke:#181818;stroke-width:1.0;"/><text fill="#000000" font-family="sans-serif" font-size="13" lengthAdjust="spacing" textLength="7" x="197.7853" y="267.9505">1</text></g><!--link Order to ItemType--><g id="link_Order_ItemType"><path codeLine="28" d="M177.06,74.12 C153.17,95.83 121.6408,124.4852 94.8408,148.8352 " fill="none" id="Order-to-ItemType" style="stroke:#181818;stroke-width:1.0;"/><polygon fill="#181818" points="90.4,152.87,99.751,149.7783,94.1006,149.5077,94.3713,143.8573,90.4,152.87" style="stroke:#181818;stroke-width:1.0;"/><text fill="#000000" font-family="sans-serif" font-size="13" lengthAdjust="spacing" textLength="7" x="90.0825" y="141.1435">1</text></g><!--link Order to ConfigurationValue--><g id="link_Order_ConfigurationValue"><path codeLine="29" d="M205.25,74.12 C207.83,95.83 211.0104,122.5621 213.9104,146.9121 " fill="none" id="Order-to-ConfigurationValue" style="stroke:#181818;stroke-width:1.0;"/><polygon fill="#181818" points="214.62,152.87,217.5276,143.4601,214.0287,147.9051,209.5837,144.4062,214.62,152.87" style="stroke:#181818;stroke-width:1.0;"/><text fill="#000000" font-family="sans-serif" font-size="13" lengthAdjust="spacing" textLength="23" x="188.4479" y="141.1435">0..N</text></g><!--SRC=[TO_12i8m38RlUOgm-uQ-W20xUT6BUAzT7SMjbJOTZD9tjzHQXaK2ENnDllxX4xCMJoJcw_eIw05HiLb0WCBQze3Dli6UaHYrMNzUTbrtRl18PEJTaG3WHPbqSeZDakRFB2t2hsT3Fx9UguSSdM4ajRgnoKLhpOgd-hkUzR0aJSWJPSL3FZTlvXjZyCGn0CQwc46OElS6_m_-1W00]--></g></svg>